<mxfile host="Electron" modified="2023-11-27T22:42:31.675Z" agent="Mozilla/5.0 (Windows NT 10.0; Win64; x64) AppleWebKit/537.36 (KHTML, like Gecko) draw.io/22.1.2 Chrome/114.0.5735.289 Electron/25.9.4 Safari/537.36" etag="2cQPeEmfFKWSlJzn_nHi" version="22.1.2" type="device">
  <diagram name="Page-1" id="AKqHH_cfeSVf5pwpsTW2">
    <mxGraphModel dx="1276" dy="614" grid="1" gridSize="10" guides="1" tooltips="1" connect="1" arrows="1" fold="1" page="1" pageScale="1" pageWidth="850" pageHeight="1100" math="0" shadow="0">
      <root>
        <mxCell id="0" />
        <mxCell id="1" parent="0" />
        <mxCell id="piJYl4j00KDmRPiPGmOM-1" value="Flight Center&amp;nbsp;&lt;br&gt;Local Server" style="shape=cube;whiteSpace=wrap;html=1;boundedLbl=1;backgroundOutline=1;darkOpacity=0.05;darkOpacity2=0.1;rotation=0;" parent="1" vertex="1">
          <mxGeometry x="370" y="310" width="205" height="155.57" as="geometry" />
        </mxCell>
        <mxCell id="piJYl4j00KDmRPiPGmOM-2" value="Database&amp;nbsp;&lt;br&gt;Server" style="shape=cube;whiteSpace=wrap;html=1;boundedLbl=1;backgroundOutline=1;darkOpacity=0.05;darkOpacity2=0.1;rotation=0;" parent="1" vertex="1">
          <mxGeometry x="105" y="520" width="205" height="155.57" as="geometry" />
        </mxCell>
        <mxCell id="piJYl4j00KDmRPiPGmOM-3" value="Client Workstation" style="shape=cube;whiteSpace=wrap;html=1;boundedLbl=1;backgroundOutline=1;darkOpacity=0.05;darkOpacity2=0.1;rotation=0;" parent="1" vertex="1">
          <mxGeometry x="425" y="530" width="205" height="155.57" as="geometry" />
        </mxCell>
        <mxCell id="piJYl4j00KDmRPiPGmOM-4" value="Financial Institute&lt;br&gt;Portal" style="shape=cube;whiteSpace=wrap;html=1;boundedLbl=1;backgroundOutline=1;darkOpacity=0.05;darkOpacity2=0.1;rotation=0;" parent="1" vertex="1">
          <mxGeometry x="30" y="300" width="205" height="155.57" as="geometry" />
        </mxCell>
        <mxCell id="piJYl4j00KDmRPiPGmOM-5" value="Email Server" style="shape=cube;whiteSpace=wrap;html=1;boundedLbl=1;backgroundOutline=1;darkOpacity=0.05;darkOpacity2=0.1;rotation=0;" parent="1" vertex="1">
          <mxGeometry x="680" y="310" width="205" height="155.57" as="geometry" />
        </mxCell>
        <mxCell id="piJYl4j00KDmRPiPGmOM-6" value="" style="endArrow=none;html=1;rounded=0;entryX=0;entryY=0;entryDx=0;entryDy=67.785;entryPerimeter=0;exitX=0;exitY=0;exitDx=205;exitDy=87.785;exitPerimeter=0;" parent="1" source="piJYl4j00KDmRPiPGmOM-4" target="piJYl4j00KDmRPiPGmOM-1" edge="1">
          <mxGeometry width="50" height="50" relative="1" as="geometry">
            <mxPoint x="650" y="490" as="sourcePoint" />
            <mxPoint x="700" y="440" as="targetPoint" />
          </mxGeometry>
        </mxCell>
        <mxCell id="piJYl4j00KDmRPiPGmOM-7" value="" style="endArrow=none;html=1;rounded=0;entryX=0;entryY=0;entryDx=20;entryDy=155.57;entryPerimeter=0;exitX=0;exitY=0;exitDx=205;exitDy=87.785;exitPerimeter=0;" parent="1" target="piJYl4j00KDmRPiPGmOM-1" edge="1">
          <mxGeometry width="50" height="50" relative="1" as="geometry">
            <mxPoint x="310" y="539.9950000000001" as="sourcePoint" />
            <mxPoint x="415" y="519.9950000000001" as="targetPoint" />
          </mxGeometry>
        </mxCell>
        <mxCell id="piJYl4j00KDmRPiPGmOM-8" value="" style="endArrow=none;html=1;rounded=0;entryX=0;entryY=0;entryDx=112.5;entryDy=155.57;entryPerimeter=0;exitX=0;exitY=0;exitDx=92.5;exitDy=0;exitPerimeter=0;" parent="1" source="piJYl4j00KDmRPiPGmOM-3" target="piJYl4j00KDmRPiPGmOM-1" edge="1">
          <mxGeometry width="50" height="50" relative="1" as="geometry">
            <mxPoint x="320" y="549.9950000000001" as="sourcePoint" />
            <mxPoint x="400" y="475.56999999999994" as="targetPoint" />
          </mxGeometry>
        </mxCell>
        <mxCell id="piJYl4j00KDmRPiPGmOM-9" value="" style="endArrow=none;html=1;rounded=0;entryX=0;entryY=0;entryDx=112.5;entryDy=155.57;entryPerimeter=0;exitX=0;exitY=0;exitDx=0;exitDy=67.785;exitPerimeter=0;" parent="1" source="piJYl4j00KDmRPiPGmOM-5" edge="1">
          <mxGeometry width="50" height="50" relative="1" as="geometry">
            <mxPoint x="660" y="410" as="sourcePoint" />
            <mxPoint x="575" y="369.99999999999994" as="targetPoint" />
          </mxGeometry>
        </mxCell>
        <mxCell id="piJYl4j00KDmRPiPGmOM-10" value="&amp;lt;&amp;lt;local network&amp;gt;&amp;gt;" style="text;html=1;align=center;verticalAlign=middle;resizable=0;points=[];autosize=1;strokeColor=none;fillColor=none;" parent="1" vertex="1">
          <mxGeometry x="245" y="350" width="120" height="30" as="geometry" />
        </mxCell>
        <mxCell id="piJYl4j00KDmRPiPGmOM-11" value="&amp;lt;&amp;lt;local network&amp;gt;&amp;gt;" style="text;html=1;align=center;verticalAlign=middle;resizable=0;points=[];autosize=1;strokeColor=none;fillColor=none;" parent="1" vertex="1">
          <mxGeometry x="235" y="475.57" width="120" height="30" as="geometry" />
        </mxCell>
        <mxCell id="piJYl4j00KDmRPiPGmOM-12" value="&amp;lt;&amp;lt;internet&amp;gt;&amp;gt;" style="text;html=1;align=center;verticalAlign=middle;resizable=0;points=[];autosize=1;strokeColor=none;fillColor=none;" parent="1" vertex="1">
          <mxGeometry x="500" y="485.57" width="90" height="30" as="geometry" />
        </mxCell>
        <mxCell id="piJYl4j00KDmRPiPGmOM-13" value="&amp;lt;&amp;lt;internet&amp;gt;&amp;gt;" style="text;html=1;align=center;verticalAlign=middle;resizable=0;points=[];autosize=1;strokeColor=none;fillColor=none;" parent="1" vertex="1">
          <mxGeometry x="580" y="340" width="90" height="30" as="geometry" />
        </mxCell>
      </root>
    </mxGraphModel>
  </diagram>
</mxfile>
